<?xml version="1.0" standalone="no"?><!DOCTYPE svg PUBLIC "-//W3C//DTD SVG 1.1//EN" "http://www.w3.org/Graphics/SVG/1.1/DTD/svg11.dtd"><svg t="1735885340423" class="icon" viewBox="0 0 1141 1024" version="1.1" xmlns="http://www.w3.org/2000/svg" p-id="3585" xmlns:xlink="http://www.w3.org/1999/xlink" width="75.76953125" height="68"><path d="M286.765 930.412l39.706-291.177-50-413.235-97.06 342.647 107.354 361.765zM900 924.529l-44.294-285.294 50-413.235L1000 568.647 900 924.53z" fill="#D9E0E9" p-id="3586"></path><path d="M338.235 801.47L276.471 226h642.647l-46.294 614.706-534.589-39.235z" fill="#E8ECF3" p-id="3587"></path><path d="M0 902.941a570.588 121.059 0 1 0 1141.176 0A570.588 121.059 0 1 0 0 902.941z" fill="#F1F5F9" p-id="3588"></path><path d="M465.912 0.047l491.723 110.27-121.417 541.436-491.73-110.27z" fill="#E7ECF1" p-id="3589"></path><path d="M348.612 123.27L851.1 161.495l-42.082 553.282-502.494-38.223z" fill="#CED6E0" p-id="3590"></path><path d="M409.494 29.394l499.812 64.382-70.888 550.336-499.812-64.383z" fill="#F1F5F9" p-id="3591"></path><path d="M438.235 157.706a37.765 37.765 0 1 0 75.53 0 37.765 37.765 0 1 0-75.53 0z" fill="#BDE6FF" p-id="3592"></path><path d="M756.941 217.647l-200.294-25.882a11.765 11.765 0 1 1 3-23.53l200.294 25.883a11.765 11.765 0 1 1-3 23.53z m7.765 92.412l-219.647-28.353a11.765 11.765 0 1 1 3-23.53l219.706 28.295a11.765 11.765 0 1 1-3 23.529zM792.118 405l-344.236-44.353a11.765 11.765 0 0 1 3-23.53l344.236 44.354a11.765 11.765 0 0 1-3 23.529z" fill="#D0D8E2" p-id="3593"></path><path d="M282.353 924.53L179.412 568.646H1000L900 924.53H282.353z" fill="#E1E7F0" p-id="3594"></path><path d="M724.235 786.294H455.118v-67.647a11.765 11.765 0 0 1 23.53 0v44.118h222.058v-44.118a11.765 11.765 0 0 1 23.53 0z" fill="#F1F5F9" p-id="3595"></path></svg>